<?xml version="1.0" encoding="UTF-8"?>
<!DOCTYPE svg PUBLIC "-//W3C//DTD SVG 1.1//EN" "http://www.w3.org/Graphics/SVG/1.1/DTD/svg11.dtd">
<!-- Creator: CorelDRAW 2019 (64-Bit) -->
<svg xmlns="http://www.w3.org/2000/svg" xml:space="preserve" width="184.503mm" height="61.0307mm" version="1.1" style="shape-rendering:geometricPrecision; text-rendering:geometricPrecision; image-rendering:optimizeQuality; fill-rule:evenodd; clip-rule:evenodd"
viewBox="0 0 4877.82 1613.51"
 xmlns:xlink="http://www.w3.org/1999/xlink"
 xmlns:xodm="http://www.corel.com/coreldraw/odm/2003">
 <defs>
  <style type="text/css">
   <![CDATA[
    .fil3 {fill:none}
    .fil2 {fill:white;fill-rule:nonzero}
    .fil0 {fill:url(#id0)}
    .fil1 {fill:url(#id1)}
   ]]>
  </style>
  <linearGradient id="id0" gradientUnits="userSpaceOnUse" x1="863.95" y1="427.44" x2="1479.5" y2="945.07">
   <stop offset="0" style="stop-opacity:1; stop-color:#6F00B8"/>
   <stop offset="1" style="stop-opacity:1; stop-color:#54005A"/>
  </linearGradient>
  <linearGradient id="id1" gradientUnits="userSpaceOnUse" x1="579.27" y1="1277.52" x2="1194.82" y2="759.89">
   <stop offset="0" style="stop-opacity:1; stop-color:#10C3FD"/>
   <stop offset="1" style="stop-opacity:1; stop-color:#291EF6"/>
  </linearGradient>
 </defs>
 <g id="Capa_x0020_1">
  <metadata id="CorelCorpID_0Corel-Layer"/>
  <g id="_2165752841168">
   <path class="fil0" d="M674.55 494.18c-58.52,42.41 -120.1,38.91 -184.83,-11.95 223.3,-288.63 542.54,-296.13 755.75,-31.38l321.48 322.83c-275.76,326.1 -469.28,133.07 -591.07,-1.17l-195.86 -193.53c66.06,-61.6 132.12,-57.31 198.19,-7l205.18 200.93c63.65,48.58 124.43,51.27 181.87,0.36l-274.54 -275.1c-108.07,-135.75 -290.14,-139.13 -416.16,-4.02z"/>
   <path class="fil1" d="M1097.43 1049.88c58.52,-42.41 120.1,-38.91 184.83,11.95 -223.3,288.63 -542.54,296.13 -755.75,31.38l-321.48 -322.83c275.76,-326.1 469.28,-133.07 591.07,1.17l195.86 193.53c-66.06,61.6 -132.12,57.31 -198.19,7l-205.18 -200.93c-63.65,-48.58 -124.43,-51.27 -181.87,-0.36l274.54 275.1c108.07,135.75 290.14,139.13 416.16,4.02z"/>
  </g>
  <path class="fil2" d="M1978.09 826.94l-149.33 0 0 196.75 -91.1 0 0 -470.48 268.88 0 0 71.47 -177.78 0 0 131.13 149.33 0 0 71.14zm249.8 147.01c-9.26,18.09 -20.84,31.98 -34.74,41.8 -13.9,9.82 -30,14.67 -48.3,14.78 -31.43,-0.11 -56.13,-12.68 -74.11,-37.83 -18.09,-25.26 -27.02,-64.19 -27.02,-117.02l0 -201.6 91.1 0 0 202.27c0,31.21 3.09,52.83 9.26,64.74 6.06,12.02 15.77,17.98 28.89,17.98 10.48,0 19.74,-1.99 27.79,-5.96 7.94,-3.97 14.78,-9.82 20.29,-17.65l0 -261.38 91.43 0 0 349.61 -74.55 0 -10.04 -49.74zm299.21 -41.36c0,-10.37 -4.08,-19.19 -12.02,-26.47 -7.94,-7.39 -23.38,-16.32 -46.21,-26.91 -35.51,-13.34 -62.2,-28.23 -80.07,-44.89 -17.87,-16.54 -26.8,-37.94 -26.8,-63.97 0,-28.45 11.36,-52.61 34.08,-72.68 22.72,-20.07 52.83,-30.11 90.21,-30.11 39.26,0 70.58,10.48 93.96,31.21 23.27,20.84 34.52,46.98 33.42,78.74l-0.66 1.87 -87.9 0c0,-14.67 -3.2,-26.47 -9.71,-35.4 -6.51,-8.93 -16.21,-13.35 -29.34,-13.35 -10.59,0 -19.52,3.42 -26.69,10.26 -7.28,6.95 -10.81,15.33 -10.81,25.26 0,10.37 3.53,18.64 10.59,25.03 7.17,6.4 22.61,15.11 46.54,26.36 36.84,12.68 64.3,27.57 82.27,44.78 17.98,17.09 26.91,39.37 26.91,66.72 0,29.67 -11.8,54.04 -35.62,73.01 -23.82,18.97 -55.25,28.34 -94.19,28.45 -40.7,-0.11 -72.9,-11.69 -96.61,-34.96 -23.71,-23.27 -35.07,-49.63 -33.97,-79.19l0.99 -1.87 82.72 0c0.44,18.97 4.96,32.53 13.57,40.81 8.6,8.38 20.51,12.46 35.51,12.46 12.9,0 22.83,-3.2 29.56,-9.48 6.84,-6.4 10.26,-15 10.26,-25.7zm230.39 91.1l-91.1 0 0 -349.61 91.1 0 0 349.61zm0 -434.53l-91.1 0 0 -69.48 91.1 0 0 69.48zm53.93 256.53c0,-52.61 12.57,-95.4 37.61,-128.48 25.14,-33.09 60.44,-49.63 105.87,-49.63 45.22,0 80.51,16.54 105.99,49.63 25.37,33.08 38.05,75.88 38.05,128.48l0 7.39c0,52.61 -12.57,95.29 -37.94,128.15 -25.26,32.87 -60.44,49.19 -105.54,49.3 -45.66,-0.11 -81.06,-16.43 -106.21,-49.19 -25.26,-32.75 -37.83,-75.44 -37.83,-128.26l0 -7.39zm90.77 7.39c0,32.53 4.08,58.34 12.13,77.53 8.05,19.19 21.83,28.79 41.14,28.79 18.53,0 31.98,-9.6 40.14,-28.79 8.16,-19.19 12.24,-45 12.24,-77.53l0 -7.39c0,-32.1 -4.08,-57.9 -12.24,-77.42 -8.16,-19.52 -21.73,-29.23 -40.7,-29.23 -18.97,0 -32.53,9.82 -40.58,29.45 -8.05,19.52 -12.13,45.33 -12.13,77.2l0 7.39zm329.54 -179l3.86 48.75c9.93,-17.43 22.06,-30.99 36.39,-40.7 14.34,-9.71 30.33,-14.56 47.98,-14.56 29.78,0 53.05,11.58 69.92,34.74 16.98,23.16 25.36,59.56 25.36,109.07l0 212.3 -91.1 0 0 -212.3c0,-26.25 -3.2,-44.89 -9.49,-55.69 -6.4,-10.92 -15.99,-16.32 -28.89,-16.32 -10.15,0 -19.3,2.32 -27.35,7.06 -8.05,4.74 -14.89,11.47 -20.51,20.07l0 257.19 -91.1 0 0 -349.61 84.92 0zm339.24 278.47l175.47 0 0 71.14 -266.56 0 0 -470.48 91.1 0 0 399.35zm319.61 71.14l-91.1 0 0 -349.61 91.1 0 0 349.61zm0 -434.53l-91.1 0 0 -69.48 91.1 0 0 69.48zm148.56 84.92l3.86 48.75c9.93,-17.43 22.06,-30.99 36.39,-40.7 14.34,-9.71 30.33,-14.56 47.98,-14.56 29.78,0 53.05,11.58 69.92,34.74 16.98,23.16 25.36,59.56 25.36,109.07l0 212.3 -91.1 0 0 -212.3c0,-26.25 -3.2,-44.89 -9.49,-55.69 -6.4,-10.92 -15.99,-16.32 -28.89,-16.32 -10.15,0 -19.3,2.32 -27.35,7.06 -8.05,4.74 -14.89,11.47 -20.51,20.07l0 257.19 -91.1 0 0 -349.61 84.92 0zm349.94 202.93l-16.43 0 0 146.68 -91.21 0 0 -504.01 91.21 0 0 286.86 14.78 0 63.41 -132.46 104.99 0 -95.07 157.71 109.29 191.9 -104.44 0 -76.54 -146.68z"/>
  <polygon class="fil3" points="-0,0 4877.82,0 4877.82,1613.51 -0,1613.51 "/>
 </g>
</svg>
