<?xml version="1.0" encoding="UTF-8"?>
<!DOCTYPE svg PUBLIC "-//W3C//DTD SVG 1.1//EN" "http://www.w3.org/Graphics/SVG/1.1/DTD/svg11.dtd">
<!-- Creator: CorelDRAW 2019 (64-Bit) -->
<svg xmlns="http://www.w3.org/2000/svg" xml:space="preserve" width="56.7973mm" height="56.7973mm" version="1.1" style="shape-rendering:geometricPrecision; text-rendering:geometricPrecision; image-rendering:optimizeQuality; fill-rule:evenodd; clip-rule:evenodd"
viewBox="0 0 788.4 788.4"
 xmlns:xlink="http://www.w3.org/1999/xlink"
 xmlns:xodm="http://www.corel.com/coreldraw/odm/2003">
 <defs>
  <style type="text/css">
   <![CDATA[
    .fil2 {fill:none}
    .fil1 {fill:url(#id0)}
    .fil0 {fill:url(#id1)}
   ]]>
  </style>
  <linearGradient id="id0" gradientUnits="userSpaceOnUse" x1="233.94" y1="666.71" x2="557.13" y2="394.93">
   <stop offset="0" style="stop-opacity:1; stop-color:#10C3FD"/>
   <stop offset="1" style="stop-opacity:1; stop-color:#291EF6"/>
  </linearGradient>
  <linearGradient id="id1" gradientUnits="userSpaceOnUse" x1="383.41" y1="220.38" x2="706.6" y2="492.16">
   <stop offset="0" style="stop-opacity:1; stop-color:#6F00B8"/>
   <stop offset="1" style="stop-opacity:1; stop-color:#54005A"/>
  </linearGradient>
 </defs>
 <g id="Capa_x0020_1">
  <metadata id="CorelCorpID_0Corel-Layer"/>
  <g id="_1950446724672">
   <path class="fil0" d="M283.96 255.42c-30.72,22.27 -63.06,20.43 -97.05,-6.27 117.24,-151.54 284.86,-155.48 396.8,-16.47l168.79 169.5c-144.78,171.22 -246.39,69.87 -310.34,-0.61l-102.84 -101.61c34.69,-32.35 69.37,-30.09 104.06,-3.67l107.73 105.5c33.42,25.5 65.33,26.92 95.49,0.19l-144.15 -144.44c-56.74,-71.27 -152.34,-73.05 -218.5,-2.11z"/>
   <path class="fil1" d="M505.99 547.19c30.72,-22.27 63.06,-20.43 97.05,6.27 -117.24,151.54 -284.86,155.48 -396.8,16.47l-168.79 -169.5c144.78,-171.22 246.39,-69.87 310.34,0.61l102.84 101.61c-34.69,32.35 -69.37,30.09 -104.06,3.67l-107.73 -105.5c-33.42,-25.5 -65.33,-26.92 -95.49,-0.19l144.15 144.44c56.74,71.27 152.34,73.05 218.5,2.11z"/>
  </g>
  <rect class="fil2" x="-0" y="-0" width="788.4" height="788.4"/>
 </g>
</svg>
